<svg xmlns="http://www.w3.org/2000/svg" viewBox="0 0 48 48"><path fill="#F57C00" d="M32 4.95l8.98 8.98L32 22.91l-8.98-8.98z"/><path fill="#FF9800" d="M23 1.96l9.97 9.97L23 21.9l-9.97-9.97z"/><g fill="#009688"><path d="M18 32c-1.1 0-2-.9-2-2V20h-4v10c0 3.3 2.7 6 6 6h19v-4H18z"/><path d="M12.8 10l-.4-1.3C11.8 7.1 10.3 6 8.6 6H5v4h3.6l5.5 16.6c.3.8 1 1.4 1.9 1.4h19c.8 0 1.5-.5 1.8-1.2L44.4 10H12.8z"/></g><circle fill="#00695C" cx="5" cy="8" r="2"/><g fill="#37474F"><circle cx="34" cy="39" r="3"/><circle cx="19" cy="39" r="3"/></g><g fill="#607D8B"><circle cx="34" cy="39" r="1"/><circle cx="19" cy="39" r="1"/></g></svg>