<svg xmlns="http://www.w3.org/2000/svg" width="48" height="48" viewBox="0 0 48 48"><path fill="#2196F3" d="M42 39c0 1.657-1.344 3-3 3H28c-1.656 0-3-1.343-3-3V28c0-1.657 1.344-3 3-3h11c1.656 0 3 1.343 3 3v11z"/><path fill="#90CAF9" d="M39 8c.552 0 1 .45 1 1v11c0 .55-.448 1-1 1H28c-.552 0-1-.45-1-1V9c0-.55.448-1 1-1h11m0-2H28c-1.656 0-3 1.344-3 3v11c0 1.657 1.344 3 3 3h11c1.656 0 3-1.343 3-3V9c0-1.656-1.344-3-3-3z"/><path d="M22 20c0 1.657-1.343 3-3 3H9c-1.657 0-3-1.343-3-3V9c0-1.656 1.343-3 3-3h10c1.657 0 3 1.344 3 3v11zm1 19c0 1.657-1.343 3-3 3H9c-1.657 0-3-1.343-3-3V28c0-1.657 1.343-3 3-3h11c1.657 0 3 1.343 3 3v11z" fill="#9C27B0"/><g fill="#E1BEE7"><circle cx="14.5" cy="33.5" r="1.5"/><circle cx="10.5" cy="37.5" r="1.5"/><circle cx="18.5" cy="37.5" r="1.5"/><circle cx="10.5" cy="29.5" r="1.5"/><circle cx="18.5" cy="29.5" r="1.5"/></g><path d="M42 38.586L38.586 42H39c1.656 0 3-1.343 3-3v-.414zm-17-3v2.828L38.414 25h-2.828m4.7.3L25.3 40.286c.296.62.795 1.118 1.414 1.414L41.7 26.714c-.296-.62-.795-1.118-1.414-1.414zM28.414 25H28c-1.656 0-3 1.343-3 3v.414L28.414 25zM25 30.586v2.828L33.414 25h-2.828M42 36.414v-2.828L33.586 42h2.828M42 31.414v-2.828L28.586 42h2.828" fill="#0D47A1"/></svg>