<svg xmlns="http://www.w3.org/2000/svg" viewBox="0 0 48 48"><path fill="#FFA726" d="M44 20v-7c0-2.2-1.8-4-4-4h-5.5c0 .8-.7 1.5-1.5 1.5s-1.5-.7-1.5-1.5H8c-2.2 0-4 1.8-4 4v7c2.2 0 4 1.8 4 4s-1.8 4-4 4v7c0 2.2 1.8 4 4 4h23.5c0-.8.7-1.5 1.5-1.5s1.5.7 1.5 1.5H40c2.2 0 4-1.8 4-4v-7c-2.2 0-4-1.8-4-4s1.8-4 4-4zM33 35.5c-.8 0-1.5-.7-1.5-1.5s.7-1.5 1.5-1.5 1.5.7 1.5 1.5-.7 1.5-1.5 1.5zm0-5c-.8 0-1.5-.7-1.5-1.5s.7-1.5 1.5-1.5 1.5.7 1.5 1.5-.7 1.5-1.5 1.5zm0-5c-.8 0-1.5-.7-1.5-1.5s.7-1.5 1.5-1.5 1.5.7 1.5 1.5-.7 1.5-1.5 1.5zm0-5c-.8 0-1.5-.7-1.5-1.5s.7-1.5 1.5-1.5 1.5.7 1.5 1.5-.7 1.5-1.5 1.5zm0-5c-.8 0-1.5-.7-1.5-1.5s.7-1.5 1.5-1.5 1.5.7 1.5 1.5-.7 1.5-1.5 1.5z"/><path fill="#F44336" d="M21 17l2.3 4.6 5.1.7-3.7 3.6.8 5.1-4.5-2.4-4.5 2.4.8-5.1-3.7-3.6 5.1-.7"/></svg>