<svg xmlns="http://www.w3.org/2000/svg" width="48" height="48" viewBox="0 0 48 48"><path fill="#4DB6AC" d="M40 45H8V3h22l10 10"/><path fill="#E0F2F1" d="M38.5 14H29V4.5"/><path d="M20.045 29.685c-.05 1.135-.37 1.994-.957 2.577s-1.417.875-2.488.875c-1.125 0-1.988-.37-2.587-1.11-.6-.74-.9-1.797-.9-3.17v-1.674c0-1.367.31-2.42.93-3.162.62-.74 1.482-1.11 2.585-1.11 1.084 0 1.908.308 2.47.91s.884 1.48.96 2.61h-2.016c-.018-.7-.126-1.18-.325-1.45-.198-.264-.562-.4-1.09-.4-.538 0-.918.19-1.142.566-.223.377-.342.995-.355 1.856v1.88c0 .99.11 1.668.332 2.037s.6.553 1.138.553c.53 0 .893-.13 1.094-.386.2-.258.314-.724.342-1.398h2.01zm5.44.705c0-.406-.103-.713-.31-.92-.21-.208-.585-.423-1.132-.646-.998-.378-1.716-.82-2.153-1.33-.438-.508-.656-1.108-.656-1.8 0-.84.297-1.513.892-2.02.595-.51 1.35-.764 2.266-.764.61 0 1.155.13 1.634.386.48.258.847.62 1.104 1.09.257.47.386 1.004.386 1.6h-2.003c0-.464-.1-.818-.297-1.062-.2-.243-.485-.365-.858-.365-.35 0-.625.1-.82.31-.196.204-.294.483-.294.834 0 .273.11.52.328.742.22.22.606.45 1.162.686.97.35 1.676.78 2.115 1.292.44.51.66 1.16.66 1.947 0 .867-.28 1.544-.83 2.03s-1.3.73-2.25.73c-.64 0-1.23-.13-1.758-.394s-.942-.643-1.24-1.135-.45-1.072-.45-1.742H23c0 .573.113.99.336 1.25s.587.39 1.093.39c.7 0 1.052-.373 1.052-1.116zm6.598-.124l1.675-7.22H36L33.13 33h-2.093l-2.85-9.953h2.228l1.668 7.22z" fill="#00695C"/></svg>