<svg version="1.1" xmlns="http://www.w3.org/2000/svg" xmlns:xlink="http://www.w3.org/1999/xlink" x="0px" y="0px" width="48px" height="48px" viewBox="0 0 48 48" enable-background="new 0 0 48 48" xml:space="preserve">
<path fill="#E1BEE7" d="M24,42c0,0-2,2-5,2s-5-3-5-3s-2,2-4,2c-3,0-4-3-4-3c0-8,7.89-20.795,13-25.221c0-4-2-7.779-2-7.779
	s-0.055-3,3-3c1.921,0,3.165,1.342,4,2c0.834-0.658,2.078-2,4-2c3.054,0,3,3,3,3s-2,3.779-2,7.779C34.113,19.205,42,32,42,40
	c0,0-1,3-4,3c-2,0-4-2-4-2s-2,3-5,3S24,42,24,42z"></path>
<g>
	<path fill="#9C27B0" d="M19,14.779h10c0-0.674,0.061-1.346,0.154-2H18.846C18.939,13.434,19,14.105,19,14.779z"></path>
	<polygon fill="#9C27B0" points="24,6 23,7 24,9 25,7 	"></polygon>
</g>
<g>
	<path fill="#CE93D8" d="M41.95,38.877C41.382,39.569,39.878,41,38,41c-1.29,0-3.127-0.933-3.605-1.407l-0.86-0.851l-0.676,1.002
		C32.841,39.77,31.415,42,29,42c-2.526,0-4.278-1.693-4.293-1.707L24,39.586l-0.707,0.707C23.275,40.31,21.557,42,19,42
		c-2.415,0-3.875-2.472-3.89-2.495l-0.676-1.01l-0.862,0.856C13.093,39.826,11.29,41,10,41c-1.907,0-3.387-1.574-3.936-2.25
		c-0.074,0.713-0.13,1.625-0.121,2.687C6.944,42.242,8.326,43,10,43c1.545,0,2.995-0.893,3.872-1.569C14.804,42.453,16.608,44,19,44
		c2.303,0,4.075-1.023,5-1.703C24.925,42.977,26.697,44,29,44c2.392,0,4.196-1.547,5.128-2.569C35.005,42.107,36.455,43,38,43
		c1.642,0,3.002-0.73,3.998-1.518C41.994,40.368,42,39.576,41.95,38.877z"></path>
	<path fill="#CE93D8" d="M40.763,34.023c-0.58,0.734-1.812,1.978-3.512,1.978c-1.319,0-3.037-1.263-3.588-1.749l-0.976-0.862
		l-0.582,1.163C32.094,34.577,30.854,37,28.499,37c-2.43,0-3.653-1.541-3.699-1.6l-0.769-1.026L24,34.412l-0.031-0.038L23.2,35.4
		c-0.046,0.059-1.27,1.6-3.699,1.6c-2.354,0-3.595-2.423-3.606-2.447l-0.582-1.163l-0.976,0.862
		c-0.551,0.486-2.269,1.749-3.588,1.749c-1.7,0-2.932-1.243-3.512-1.978c-0.278,0.729-0.505,1.457-0.694,2.182
		c0.953,0.891,2.369,1.796,4.206,1.796c1.526,0,3.064-0.88,4.01-1.546C15.567,37.507,17.133,39,19.501,39
		c2.161,0,3.66-0.897,4.499-1.596C24.839,38.103,26.338,39,28.499,39c2.368,0,3.934-1.493,4.742-2.545
		c0.945,0.666,2.483,1.546,4.01,1.546c1.837,0,3.253-0.905,4.206-1.796C41.268,35.48,41.041,34.752,40.763,34.023z"></path>
</g>
</svg>