<svg xmlns="http://www.w3.org/2000/svg" width="48" height="48" viewBox="0 0 48 48"><path fill="#3F51B5" d="M38 13c0 .553-.447 1-1 1H5c-.552 0-1-.447-1-1V6c0-.553.448-1 1-1h32c.553 0 1 .447 1 1v7z"/><path fill="#BBDEFB" d="M4 10h34v29H4z"/><path fill="#E57373" d="M43.678 25.142l-2.82-2.82c-.43-.43-1.126-.43-1.555 0l-1.328 1.33 4.376 4.374 1.33-1.328c.43-.43.43-1.126 0-1.556"/><path fill="#FF9800" d="M23.472 38.154L35.787 25.84l4.375 4.374L27.847 42.53z"/><path fill="#B0BEC5" d="M42.352 28.027l-2.188 2.188-4.377-4.375 2.187-2.188z"/><path fill="#FFC107" d="M23.473 38.152L22 44l5.848-1.472"/><path fill="#37474F" d="M22.744 41.044L22 44l2.956-.744"/><g fill="#1976D2"><path d="M27.796 31H15v2h10.797M31 27.796V27H15v2h14.796M15 19h16v2H15zm0-4h16v2H15zm-4 0h2v2h-2zm0 4h2v2h-2zm0 12h2v2h-2z"/><path d="M15 31v2h7c0-.684.07-1.35.19-2H15zm-4-8h2v2h-2zm0 4h2v2h-2zm4-4h16v2H15z"/></g></svg>