<svg xmlns="http://www.w3.org/2000/svg" width="48" height="48" viewBox="0 0 48 48"><path d="M16 14c0 1.104-.896 2-2 2H8c-1.104 0-2-.896-2-2V8c0-1.104.896-2 2-2h6c1.104 0 2 .896 2 2v6zm13 0c0 1.104-.896 2-2 2h-6c-1.104 0-2-.896-2-2V8c0-1.104.896-2 2-2h6c1.104 0 2 .896 2 2v6zm13 0c0 1.104-.896 2-2 2h-6c-1.104 0-2-.896-2-2V8c0-1.104.896-2 2-2h6c1.104 0 2 .896 2 2v6zM16 27c0 1.104-.896 2-2 2H8c-1.104 0-2-.896-2-2v-6c0-1.104.896-2 2-2h6c1.104 0 2 .896 2 2v6zm13 0c0 1.104-.896 2-2 2h-6c-1.104 0-2-.896-2-2v-6c0-1.104.896-2 2-2h6c1.104 0 2 .896 2 2v6zm13 0c0 1.104-.896 2-2 2h-6c-1.104 0-2-.896-2-2v-6c0-1.104.896-2 2-2h6c1.104 0 2 .896 2 2v6zM16 40c0 1.104-.896 2-2 2H8c-1.104 0-2-.896-2-2v-6c0-1.104.896-2 2-2h6c1.104 0 2 .896 2 2v6zm13 0c0 1.104-.896 2-2 2h-6c-1.104 0-2-.896-2-2v-6c0-1.104.896-2 2-2h6c1.104 0 2 .896 2 2v6zm13 0c0 1.104-.896 2-2 2h-6c-1.104 0-2-.896-2-2v-6c0-1.104.896-2 2-2h6c1.104 0 2 .896 2 2v6z" fill="#64B5F6"/></svg>