<svg version="1.1" id="Слой_1" xmlns="http://www.w3.org/2000/svg" xmlns:xlink="http://www.w3.org/1999/xlink" x="0px" y="0px" width="48px" height="48px" viewBox="0 0 48 48" enable-background="new 0 0 48 48" xml:space="preserve">
<path fill="#FBC02D" d="M25,4h-2C13.611,4,5,10,5,20c0,7,3,9,3,9c0.311,0.311,0.648,0.602,1,0.884V32c0,4.002,6,5,6,5v5
	c0,0.553,0.447,1,1,1h16c0.553,0,1-0.447,1-1v-5c0,0,6-0.998,6-5v-2.116c0.352-0.282,0.689-0.573,1-0.884c0,0,3-3,3-9
	C43,10,34.389,4,25,4z"></path>
<g>
	<path fill="#7A4F04" d="M27.501,36.893c0,0.949-0.635,1.429-1.438,1.429c-1.104,0-1.905-1.908-2.063-2.71
		c0,0.96-0.791,2.71-2.063,2.71c-0.804,0-1.438-0.479-1.438-1.429c0-1.917,2.23-5.576,3.501-5.888
		C25.271,31.484,27.501,34.976,27.501,36.893z"></path>
	<path fill="#7A4F04" d="M28.296,22.729c-2.233,0.633-3.025,3.501-2.388,5.566c0.958,3.021,3.658,4.292,6.847,3.346
		c1.429-0.479,2.699-2.232,1.429-6.046C33.393,23.041,30.837,21.938,28.296,22.729L28.296,22.729z"></path>
	<path fill="#7A4F04" d="M19.704,22.729c-2.709-0.96-5.097,0.312-5.888,2.866c-1.271,3.813,0.158,5.566,1.429,6.046
		c3.188,0.946,5.889-0.325,6.847-3.346C22.729,26.388,21.938,23.521,19.704,22.729L19.704,22.729z"></path>
</g>
</svg>