<svg version="1.1" id="Слой_1" xmlns="http://www.w3.org/2000/svg" xmlns:xlink="http://www.w3.org/1999/xlink" x="0px" y="0px" width="48px" height="48px" viewBox="0 0 48 48" enable-background="new 0 0 48 48" xml:space="preserve">
<g>
	<path fill="#03A9F4" d="M42,37c0,1.104-0.896,2-2,2H8c-1.104,0-2-0.896-2-2V15c0-1.104,0.896-2,2-2h32c1.104,0,2,0.896,2,2V37z"></path>
	<path fill="#03A9F4" d="M33,16c0,1.104-0.896,2-2,2H17c-1.104,0-2-0.896-2-2v-5c0-1.104,0.896-2,2-2h14c1.104,0,2,0.896,2,2V16z"></path>
</g>
<circle fill="#FFFFFF" cx="37" cy="18" r="2"></circle>
<circle fill="#B3E5FC" cx="24" cy="26" r="10"></circle>
<circle fill="#01579B" cx="24" cy="26" r="8"></circle>
<path fill="#0277BD" d="M20,30c0,1.173,0.259,2.284,0.712,3.287C21.716,33.741,22.827,34,24,34c4.418,0,8-3.582,8-8
	c0-1.173-0.259-2.284-0.713-3.287C30.283,22.259,29.174,22,28,22C23.582,22,20,25.582,20,30z"></path>
</svg>