<svg xmlns="http://www.w3.org/2000/svg" width="48" height="48" viewBox="0 0 48 48"><g fill="#03A9F4"><path d="M42 37c0 1.104-.896 2-2 2H8c-1.104 0-2-.896-2-2V15c0-1.104.896-2 2-2h32c1.104 0 2 .896 2 2v22z"/><path d="M33 16c0 1.104-.896 2-2 2H17c-1.104 0-2-.896-2-2v-5c0-1.104.896-2 2-2h14c1.104 0 2 .896 2 2v5z"/></g><circle fill="#FFF" cx="37" cy="18" r="2"/><circle fill="#B3E5FC" cx="24" cy="26" r="10"/><circle fill="#01579B" cx="24" cy="26" r="8"/><path fill="#0277BD" d="M20 30c0 1.173.26 2.284.712 3.287C21.716 33.74 22.827 34 24 34c4.418 0 8-3.582 8-8 0-1.173-.26-2.284-.713-3.287C30.283 22.26 29.174 22 28 22c-4.418 0-8 3.582-8 8z"/></svg>