<svg xmlns="http://www.w3.org/2000/svg" width="48" height="48" viewBox="0 0 48 48"><path fill="#FFC107" d="M22.974 22H6V5h17"/><path fill="#7CB342" d="M6 26h17v17H6z"/><path fill="#FFF9C4" d="M17 10c0 1.105.895 2 2 2s2-.895 2-2-.895-2-2-2-2 .895-2 2"/><path fill="#D85700" d="M13 11l-6 8h12"/><path fill="#EF7E03" d="M18 14l-4.125 5H22"/><g fill="#FFF"><path d="M12.487 30.518c0-1.105.9-1.998 2.013-1.998s2.013.893 2.013 1.998c0 1.107-2.013 4.002-2.013 4.002s-2.013-2.895-2.013-4.002m4.026 8.002c0 1.107-.9 2-2.013 2s-2.013-.893-2.013-2c0-1.106 2.013-4 2.013-4s2.013 2.893 2.013 4"/><path d="M10.007 34.252c-.963-.555-1.293-1.776-.737-2.734.555-.957 1.787-1.285 2.75-.73.963.554 2.48 3.732 2.48 3.732s-3.53.283-4.493-.268m8.986.534c.963.553 1.293 1.777.737 2.73-.555.96-1.787 1.288-2.75.735-.964-.55-2.48-3.73-2.48-3.73s3.53-.28 4.493.27"/><path d="M18.993 34.252c.963-.555 1.293-1.776.737-2.734-.555-.957-1.787-1.285-2.75-.73-.964.553-2.48 3.732-2.48 3.732s3.53.283 4.493-.268m-8.986.534c-.963.553-1.293 1.777-.737 2.73.555.96 1.787 1.288 2.75.735.963-.55 2.48-3.73 2.48-3.73s-3.53-.28-4.493.27"/></g><path fill="#FFC107" d="M16.5 34.597c0 1.103-.894 1.996-2 1.996-1.105 0-2-.894-2-1.996 0-1.11.895-2.004 2-2.004 1.106 0 2 .894 2 2.004"/><path d="M27 8h15v4H27zm0 7h11v4H27zm0 14h15v4H27zm0 7h11v4H27z" fill="#90CAF9"/></svg>