<svg xmlns="http://www.w3.org/2000/svg" width="48" height="48" viewBox="0 0 48 48"><path fill="#81C784" d="M3 18.74L36.275 5l7.634 18.485-33.278 13.74z"/><g fill="#1B5E20"><path d="M3.003 18.74l1.85-.764 7.627 18.488-1.85.763z"/><path d="M9.87 35.38l33.276-13.743.763 1.848-33.278 13.74z"/><path d="M43.91 23.487l-1.847.763-7.637-18.485 1.85-.763z"/><path d="M36.114 7.23L4.688 20.21l-.764-1.85L35.35 5.382zM9.217 31.51c2.552-1.054 5.476.16 6.53 2.713l-4.62 1.908-1.91-4.62z"/><path d="M6.214 23.904c2.552-1.054 3.768-3.977 2.713-6.53l-4.622 1.91 1.91 4.62zm34.48-5.582c-2.554 1.055-3.768 3.978-2.714 6.53l4.62-1.91-1.907-4.62zm-3.054-7.394c-2.552 1.055-5.475-.16-6.53-2.713l4.623-1.908 1.908 4.62z"/><circle cx="13.287" cy="25.312" r="2"/><circle cx="33.621" cy="16.916" r="2"/><path d="M17.057 23.956c-1.625-3.655.932-6.98 3.96-8.325 3.028-1.343 7.21-1.013 8.833 2.64 1.625 3.658-.932 6.98-3.96 8.328-3.027 1.345-7.208 1.015-8.833-2.64z"/></g><path fill="#A5D6A7" d="M8 23h36v20H8z"/><g fill="#388E3C"><path d="M8 23h2v20H8z"/><path d="M8 41h36v2H8z"/><path d="M42 23h2v20h-2z"/><path d="M9 23h34v2H9zm0 14c2.76 0 5 2.238 5 5H9v-5z"/><path d="M9 29c2.76 0 5-2.238 5-5H9v5zm34 8c-2.762 0-5 2.238-5 5h5v-5zm0-8c-2.762 0-5-2.238-5-5h5v5zm-24 4c0-4 3.687-6 7-6s7 2 7 6-3.687 6-7 6-7-2-7-6z"/><circle cx="15" cy="33" r="2"/><circle cx="37" cy="33" r="2"/></g></svg>