<svg xmlns="http://www.w3.org/2000/svg" width="48" height="48" viewBox="0 0 48 48"><g fill="#43A047"><path d="M42 35c0 8.008-8.06 8-18 8s-18 .008-18-8 8.06-18 18-18 18 9.992 18 18z"/><path d="M30 8.57c-1.896 2.1-1-4.422-5 0-1.897 2.1-1-4.422-5 0-1.69 1.87-1.165-3.102-3.864-1.07L19 18h10l2.994-10.977c-.48.13-1.117.58-1.994 1.548z"/></g><path fill="#FFF" d="M25.46 33.744c0-.48-.134-.862-.4-1.147-.266-.283-.72-.546-1.357-.786s-1.19-.47-1.652-.71c-.46-.24-.86-.51-1.19-.82-.33-.304-.59-.67-.77-1.082s-.273-.91-.273-1.485c0-.99.317-1.803.95-2.436s1.474-1.002 2.52-1.107v-1.88h1.408v1.905c1.038.147 1.85.58 2.436 1.298s.87 1.648.87 2.79h-2.54c0-.704-.144-1.23-.433-1.578-.29-.35-.68-.523-1.165-.523-.48 0-.85.132-1.11.403-.264.273-.396.65-.396 1.13 0 .445.13.803.387 1.072s.737.544 1.437.825 1.276.548 1.727.797.83.53 1.143.84.548.67.712 1.074.245.868.245 1.402c0 .996-.31 1.805-.93 2.426s-1.478.99-2.567 1.1V39h-1.4v-1.74c-1.2-.13-2.13-.555-2.79-1.278s-.99-1.687-.99-2.888h2.54c0 .697.166 1.232.497 1.604s.807.558 1.428.558c.517 0 .924-.136 1.223-.41.3-.27.448-.64.448-1.102z"/><path d="M14 38.996c-.44-2.22-.505-4.505-.224-6.75.545-4.358 1.983-8.852 4.43-12.472.264-.39.607-1.138.997-1.403.34-.23.42-.14.83-.04.754.19 1.51.35 2.284.45 2.248.27 4.57.07 6.683-.773M11 29c0-3 3.818-10.163 8-11" fill="none" stroke="#FDD835" stroke-width="2" stroke-linecap="round"/></svg>