<svg xmlns="http://www.w3.org/2000/svg" width="48" height="48" viewBox="0 0 48 48"><path fill="#BF360C" d="M16 15h16v18H16z"/><path fill="#FF9800" d="M24 37c-2.193 0-5-6-5-6v-6h10v6s-2.807 6-5 6"/><path d="M33 14c0-7.635-18-4.97-18 0v7c0 4.97 4.03 9 9 9s9-4.03 9-9v-7zm-9 24c-4.42 0-5-7-5-7s2.507 4 5 4 5-4 5-4-.58 7-5 7" fill="#FFB74D"/><path d="M27 21c0 .552.448 1 1 1s1-.448 1-1-.448-1-1-1-1 .448-1 1m-8 0c0 .552.448 1 1 1s1-.448 1-1-.448-1-1-1-1 .448-1 1" fill="#784719"/><path fill="#FF5722" d="M24 4C17.925 4 9 7.404 9 27.284L16 32V19l12-7 4 5v15l7-6c0-4.025-.674-20-11-20l-1-2h-3z"/><path fill="#B3E5FC" d="M29 31s-.58 7-5 7-5-7-5-7S8 32.986 8 44h32c0-10.975-11-13-11-13zm3-26s-3-2-8-2-8 2-8 2v10s3-2 8-2 8 2 8 2V5z"/><g fill="#F44336"><path d="M23 5h2v6h-2z"/><path d="M21 7h6v2h-6z"/></g></svg>