<svg xmlns="http://www.w3.org/2000/svg" width="48" height="48" viewBox="0 0 48 48"><path d="M4 9h21v4H4zm0 13h21v4H4zm0 13h21v4H4z" fill="#90CAF9"/><g fill="#F44336"><path d="M30.053 33.31l2.235-2.242 9.685 9.71-2.235 2.242"/><path d="M32.288 43.02l-2.235-2.243 9.685-9.71 2.235 2.243"/></g><g fill="#4CAF50"><path d="M31.27 7.12l6.365 6.365-2.12 2.12-6.365-6.363z"/><path d="M35.515 15.607l-2.122-2.12L41.88 5 44 7.122zm-4.243 3.513l6.363 6.365-2.12 2.12-6.365-6.363z"/><path d="M35.515 27.607l-2.122-2.12L41.88 17 44 19.122z"/></g></svg>