<svg xmlns="http://www.w3.org/2000/svg" width="48" height="48" viewBox="0 0 48 48"><path fill="#388E3C" d="M29 38H7c-1.105 0-2-.895-2-2V15c0-1.105.895-2 2-2h20c1.105 0 2 .895 2 2v23z"/><path fill="#8BC34A" d="M43 38H29V18h10.56c.86 0 1.624.55 1.896 1.368L45 30v6c0 1.105-.895 2-2 2"/><path d="M41 37.5c0 2.484-2.015 4.5-4.5 4.5S32 39.984 32 37.5s2.015-4.5 4.5-4.5 4.5 2.016 4.5 4.5m-22 0c0 2.484-2.015 4.5-4.5 4.5S10 39.984 10 37.5s2.015-4.5 4.5-4.5 4.5 2.016 4.5 4.5" fill="#37474F"/><path d="M38 37.5c0 .83-.67 1.5-1.5 1.5s-1.5-.67-1.5-1.5.67-1.5 1.5-1.5 1.5.67 1.5 1.5m-22 0c0 .83-.67 1.5-1.5 1.5s-1.5-.67-1.5-1.5.67-1.5 1.5-1.5 1.5.67 1.5 1.5" fill="#78909C"/><path fill="#37474F" d="M40 28h-7c-.552 0-1-.448-1-1v-6c0-.552.448-1 1-1h5.28c.43 0 .812.275.948.684l1.72 5.162c.034.102.052.21.052.316V27c0 .552-.448 1-1 1"/><path fill="#1B5E20" d="M12.5 27C18.852 27 24 21.852 24 15.5c0-.86-.102-1.694-.28-2.5H7c-1.105 0-2 .895-2 2v9.206C7.015 25.943 9.63 27 12.5 27z"/><path fill="#00ACC1" d="M22 15.5c0 5.247-4.253 9.5-9.5 9.5S3 20.747 3 15.5 7.253 6 12.5 6s9.5 4.253 9.5 9.5"/><path fill="#EEE" d="M12.5 8.5c-3.866 0-7 3.133-7 7s3.134 7 7 7 7-3.133 7-7-3.134-7-7-7zm0 7.5c-.275 0-.5-.224-.5-.5s.225-.5.5-.5.5.224.5.5-.225.5-.5.5z"/><path d="M12 10h1v4.563h-1zm4.343 8.17l-1.174 1.173-2.773-2.773 1.174-1.173z"/><path d="M12.5 14c-.83 0-1.5.672-1.5 1.5 0 .83.67 1.5 1.5 1.5s1.5-.67 1.5-1.5c0-.828-.67-1.5-1.5-1.5zm0 2c-.275 0-.5-.224-.5-.5s.225-.5.5-.5.5.224.5.5-.225.5-.5.5z"/></svg>